<?xml version="1.0" encoding="UTF-8"?>
<svg id="Layer_2" data-name="Layer 2" xmlns="http://www.w3.org/2000/svg" viewBox="0 0 300.81 117.88">
  <g id="Layer_1-2" data-name="Layer 1">
    <g>
      <path d="m43.73,52.86c.79,0,1.58.39,2.03,1.16l32.13,54.3c.93,1.58-.2,3.57-2.03,3.57H11.6c-1.83,0-2.97-1.99-2.03-3.57l32.13-54.3c.46-.77,1.25-1.16,2.03-1.16m0-5c-2.63,0-5,1.35-6.34,3.61L5.26,105.77c-1.34,2.27-1.37,5.1-.06,7.4,1.31,2.29,3.76,3.72,6.4,3.72h64.26c2.64,0,5.09-1.42,6.4-3.72,1.31-2.29,1.28-5.13-.06-7.4l-32.13-54.3c-1.34-2.26-3.71-3.61-6.34-3.61h0Z"/>
      <path d="m81.62,33.88c.76,0,1.38.62,1.38,1.38v5.23c0,.76-.62,1.38-1.38,1.38H5.38c-.76,0-1.38-.62-1.38-1.38v-5.23c0-.76.62-1.38,1.38-1.38h76.23m0-4H5.38c-2.97,0-5.38,2.41-5.38,5.38v5.23c0,2.97,2.41,5.38,5.38,5.38h76.23c2.97,0,5.38-2.41,5.38-5.38v-5.23c0-2.97-2.41-5.38-5.38-5.38h0Z"/>
      <path d="m44.5,6.88c4.69,0,8.5,3.81,8.5,8.5s-3.81,8.5-8.5,8.5-8.5-3.81-8.5-8.5,3.81-8.5,8.5-8.5m0-4c-6.9,0-12.5,5.6-12.5,12.5s5.6,12.5,12.5,12.5,12.5-5.6,12.5-12.5-5.6-12.5-12.5-12.5h0Z"/>
    </g>
    <g>
      <g>
        <path d="m99,53.86V4.9c0-1.11.9-2.02,2.02-2.02h14.93c4.9,0,8.81,1.41,11.72,4.22,2.91,2.81,4.36,6.57,4.36,11.28s-1.45,8.47-4.36,11.28c-2.91,2.81-6.81,4.22-11.72,4.22h-8.93c-1.11,0-2.02.9-2.02,2.02v17.97c0,1.11-.9,2.02-2.02,2.02h-1.97c-1.11,0-2.02-.9-2.02-2.02Zm6-28c0,1.11.9,2.02,2.02,2.02h8.26c2.79,0,5.02-.86,6.7-2.59,1.68-1.73,2.52-4.03,2.52-6.91s-.84-5.25-2.52-6.95c-1.68-1.7-3.91-2.55-6.7-2.55h-8.26c-1.11,0-2.02.9-2.02,2.02v14.97Z"/>
        <path d="m156.93,56.2c-4.53,0-8.14-1.36-10.86-4.07s-4.07-6.4-4.07-11.05v-23.18c0-1.11.9-2.02,2.02-2.02h2.97c1.11,0,2.02.9,2.02,2.02v23.18c0,2.88.76,5.17,2.27,6.88,1.51,1.71,3.57,2.56,6.16,2.56s4.73-.85,6.27-2.56c1.53-1.7,2.3-4,2.3-6.88v-23.18c0-1.11.9-2.02,2.02-2.02h1.97c1.11,0,2.02.9,2.02,2.02v23.18c0,4.66-1.38,8.34-4.14,11.05-2.76,2.71-6.4,4.07-10.93,4.07Z"/>
        <path d="m186,53.86V17.9c0-1.11.9-2.02,2.02-2.02h1.97c1.11,0,2.02.9,2.02,2.02v5.98h.07c.34-2.64,1.44-4.67,3.29-6.11,1.85-1.44,4.32-2.16,7.39-2.16,4.05,0,7.27,1.22,9.66,3.67,2.39,2.45,3.58,5.78,3.58,10v24.59c0,1.11-.9,2.02-2.02,2.02h-2.97c-1.11,0-2.02-.9-2.02-2.02v-23.47c0-3.02-.75-5.34-2.25-6.95-1.5-1.61-3.54-2.41-6.11-2.41s-4.78.84-6.32,2.52c-1.55,1.68-2.32,4.06-2.32,7.13v23.18c0,1.11-.9,2.02-2.02,2.02h-1.97c-1.11,0-2.02-.9-2.02-2.02Z"/>
        <path d="m228,53.86v-1.97c0-1.11.9-2.02,2.02-2.02h9.97c1.11,0,2.02-.9,2.02-2.02v-23.97c0-1.11-.9-2.02-2.02-2.02h-7.97c-1.11,0-2.02-.9-2.02-2.02v-1.97c0-1.11.9-2.02,2.02-2.02h14.97c1.11,0,2.02.9,2.02,2.02v29.97c0,1.11.9,2.02,2.02,2.02h8.97c1.11,0,2.02.9,2.02,2.02v1.97c0,1.11-.9,2.02-2.02,2.02h-29.97c-1.11,0-2.02-.9-2.02-2.02Zm16.62-44.65c-1.58,0-2.83-.41-3.74-1.22-.91-.82-1.37-1.92-1.37-3.31s.46-2.58,1.37-3.42,2.16-1.26,3.74-1.26,2.83.42,3.74,1.26c.91.84,1.37,1.98,1.37,3.42s-.46,2.5-1.37,3.31c-.91.82-2.16,1.22-3.74,1.22Z"/>
        <path d="m286.67,56.88c-4.44,0-8-1.37-10.67-4.13-2.67-2.75-4-6.53-4-11.35v-11.05c0-4.81,1.33-8.6,4-11.35,2.67-2.75,6.22-4.13,10.67-4.13s7.63,1.25,10.23,3.76c2.11,2.03,3.41,4.67,3.89,7.9.18,1.23-.75,2.35-1.99,2.35h-1.93c-.99,0-1.88-.68-2.06-1.65-.33-1.81-1.07-3.26-2.21-4.35-1.47-1.4-3.44-2.1-5.93-2.1-2.62,0-4.72.82-6.3,2.47-1.58,1.65-2.37,3.99-2.37,7.04v11.13c0,3.05.79,5.4,2.37,7.07,1.58,1.67,3.68,2.51,6.3,2.51,2.49,0,4.47-.71,5.93-2.14,1.14-1.11,1.88-2.55,2.21-4.34.18-.96,1.06-1.63,2.03-1.63h1.95c1.24,0,2.18,1.12,1.99,2.35-.49,3.23-1.78,5.86-3.89,7.9-2.6,2.51-6.01,3.76-10.23,3.76Z"/>
      </g>
      <g>
        <path d="m99,115.86v-48.97c0-1.11.9-2.02,2.02-2.02h11.48c3.38,0,6.3.65,8.75,1.96,2.45,1.31,4.36,3.15,5.71,5.52,1.36,2.37,2.04,5.18,2.04,8.42v21.13c0,3.24-.68,6.06-2.04,8.46-1.36,2.4-3.26,4.25-5.71,5.55-2.45,1.31-5.37,1.96-8.75,1.96h-11.48c-1.11,0-2.02-.9-2.02-2.02Zm7-6c0,1.11.9,2.02,2.02,2.02h5c3.12,0,5.56-.89,7.33-2.66,1.77-1.77,2.66-4.24,2.66-7.41v-20.93c0-3.12-.88-5.56-2.66-7.34-1.77-1.77-4.21-2.66-7.33-2.66h-5c-1.11,0-2.02.9-2.02,2.02v36.97Z"/>
        <path d="m156.73,117.6c-4.41,0-7.97-1.39-10.67-4.18-2.7-2.79-4.06-6.63-4.06-11.54v-9.34c0-4.94,1.42-8.82,4.27-11.63,2.85-2.81,6.59-4.21,11.23-4.21,3.11,0,5.82.62,8.15,1.87,2.32,1.25,4.13,3,5.42,5.26,1.29,2.26,1.94,4.92,1.94,7.99v5.04c0,1.11-.9,2.02-2.02,2.02h-20.97c-1.11,0-2.02.9-2.02,2.02v1.7c0,2.91.8,5.2,2.39,6.89,1.59,1.69,3.7,2.54,6.34,2.54,2.27,0,4.15-.46,5.63-1.39,1.09-.69,1.87-1.55,2.33-2.59.32-.73,1.08-1.16,1.87-1.16h2.09c1.37,0,2.39,1.36,1.92,2.65-.75,2.07-2.06,3.8-3.95,5.17-2.64,1.93-5.93,2.89-9.89,2.89Zm-6.79-23.71h14.4c1.11,0,2.02-.9,2.02-2.02h0c0-3.12-.8-5.53-2.41-7.24-1.61-1.7-3.88-2.56-6.8-2.56s-5.2.85-6.8,2.56c-1.61,1.7-2.41,4.12-2.41,7.24h0c0,1.11.9,2.02,2.02,2.02Z"/>
        <path d="m195.58,116.51l-12.23-35.97c-.44-1.31.53-2.67,1.91-2.67h2.77c.87,0,1.65.56,1.92,1.39l8.27,25.51c.53,1.6.99,3.14,1.38,4.62.39,1.48.68,2.63.87,3.45.24-.82.53-1.97.87-3.45.34-1.48.75-3.02,1.24-4.62l8.27-25.51c.27-.83,1.04-1.39,1.92-1.39h2.63c1.38,0,2.35,1.36,1.91,2.67l-12.23,35.97c-.28.82-1.05,1.37-1.91,1.37h-5.69c-.86,0-1.63-.55-1.91-1.37Z"/>
      </g>
    </g>
  </g>
</svg>