<?xml version="1.0" encoding="UTF-8"?>
<svg id="Layer_2" data-name="Layer 2" xmlns="http://www.w3.org/2000/svg" viewBox="0 0 151 151">
  <defs>
    <style>
      .cls-1 {
        fill: #fff;
        stroke: #000;
        stroke-miterlimit: 10;
        stroke-width: 4px;
      }
    </style>
  </defs>
  <g id="Layer_1-2" data-name="Layer 1">
    <circle class="cls-1" cx="75.5" cy="75.5" r="73.5"/>
    <g>
      <path d="m75.73,65.98c.79,0,1.58.39,2.03,1.16l32.13,54.3c.93,1.58-.2,3.57-2.03,3.57H43.6c-1.83,0-2.97-1.99-2.03-3.57l32.13-54.3c.46-.77,1.25-1.16,2.03-1.16m0-5c-2.63,0-5,1.35-6.34,3.61l-32.13,54.3c-1.34,2.27-1.37,5.1-.06,7.4,1.31,2.29,3.76,3.72,6.4,3.72h64.26c2.64,0,5.09-1.42,6.4-3.72s1.28-5.13-.06-7.4l-32.13-54.3c-1.34-2.26-3.71-3.61-6.34-3.61h0Z"/>
      <path d="m113.62,47c.76,0,1.38.62,1.38,1.38v5.23c0,.76-.62,1.38-1.38,1.38H37.38c-.76,0-1.38-.62-1.38-1.38v-5.23c0-.76.62-1.38,1.38-1.38h76.23m0-4H37.38c-2.97,0-5.38,2.41-5.38,5.38v5.23c0,2.97,2.41,5.38,5.38,5.38h76.23c2.97,0,5.38-2.41,5.38-5.38v-5.23c0-2.97-2.41-5.38-5.38-5.38h0Z"/>
      <path d="m76.5,20c4.69,0,8.5,3.81,8.5,8.5s-3.81,8.5-8.5,8.5-8.5-3.81-8.5-8.5,3.81-8.5,8.5-8.5m0-4c-6.9,0-12.5,5.6-12.5,12.5s5.6,12.5,12.5,12.5,12.5-5.6,12.5-12.5-5.6-12.5-12.5-12.5h0Z"/>
    </g>
  </g>
</svg>